<?xml version="1.0" encoding="UTF-8"?>
<svg id="Layer_1" xmlns="http://www.w3.org/2000/svg" viewBox="0 0 622.41 370.44">
  <defs>
    <style>
      .cls-1 {
        fill: #969696;
      }

      .cls-2 {
        stroke: #fff;
        stroke-linejoin: round;
        stroke-width: 4px;
      }

      .cls-2, .cls-3 {
        fill: #fff;
      }

      .cls-4 {
        fill: #f67e28;
      }
    </style>
  </defs>
  <path class="cls-1" d="M596.45,151.44h-25.3s-2.45,6.97-2.45,6.97l-15.12,43.08-15.08-43.09-2.44-6.98h-7.4l-34.53-.02h-27.67c-1.4-.71-2.98-1.11-4.65-1.11h-.93c-1.76-1.36-3.97-2.18-6.37-2.18h-13.56c-2.99,0-5.68,1.25-7.58,3.27h-4.92l1.4,4.02h-12.02c-1.67,0-3.25.39-4.66,1.09-.6-.45-1.25-.83-1.94-1.14-1.9-2.01-4.59-3.26-7.57-3.26h-11.04c-3.88,0-7.26,2.11-9.06,5.25-.05-.03-.1-.06-.15-.09v-3.78c0-5.76-4.66-10.43-10.43-10.44h-11.51c-8.8-25.3-26.22-41.22-45.85-41.23-19.11,0-36.07,15.12-45.07,38.98-.36-.04-.73-.06-1.11-.06h-6.52c-3.34,0-6.31,1.57-8.22,4.01-.68.45-1.3.98-1.85,1.57-1.12.65-2.11,1.51-2.92,2.52-3.06,1.03-5.48,3.44-6.53,6.49h-10.47c-.39,0-.78.02-1.16.06-1.38-2.26-3.59-3.96-6.21-4.67-1.81-1.52-4.15-2.44-6.71-2.44h-14.08c-2.52,0-4.83.88-6.63,2.37-1.94.47-3.66,1.49-5.01,2.88l.78-2.24h-32.61s-7.4,0-7.4,0l-.62,1.77c-2.96,1.84-4.94,5.11-4.94,8.85v5.23l-12,34.2-15.08-43.09-2.44-6.98h-7.4l-34.53-.02H25.88l-14.68-.02,4.83,13.87,30.83,88.56c1.82,5.2,4.98,9.62,9.4,13.2v28.66h22.99l-.02,60.42h46.62s11.88.01,11.88.01h40.44s6.09.01,6.09.01h31.15s.03.01.03.01v-19.71l10.75,12.09.02.03.02.03c2.84,3.15,7.92,6.85,16.29,7.48v.1l40.22.02h36.1s10.43.01,10.43.01h47.99s4.34.01,4.34.01h37.39v-19.58l10.63,11.95.02.03.02.03c3.12,3.46,8.91,7.58,18.81,7.58,6.47,0,12.26-1.98,17.22-5.88l.03-.02.03-.02c5-4,7.89-9.19,8.44-15.1,1.98,2.68,4.29,5.22,6.96,7.62l.04.03.04.03c10.02,8.86,22.09,13.35,35.88,13.36l41.06.02h10.43v-44.28c.02-3.97-1.38-11.28-10.6-16.13h.34v-23.93c1.86-.84,3.67-1.84,5.41-3.06l.03-.02.03-.02c5.54-3.91,9.45-9.04,11.62-15.26l30.9-88.08,4.87-13.88h-14.71l-.04.05Z"/>
  <g>
    <path d="M169.36,167.65c17.82.12,29.09,26.19,57.85-13.56,12.1-47.02,58.3-77.89,107.15-69.94,38.26,6.22,67.43,34.51,76.64,69.75,4.45,29.71,24.87,12.71,29.49,12.69,12.87-.04,15.8.04,28.68,0,1.86,0-2.7-16.88-.97-16.53-11.16-59.81-57.94-109.48-121.34-121.27-82.32-15.32-161.47,39-176.78,121.32-.03.17-.06.34-.09.51,1.33-.21-1.96,17.03-.61,17.04Z"/>
    <path class="cls-3" d="M319.18,24.68c-84.45-.03-153.2,68.65-153.23,153.11l78.88.03s0,0,0-.01l-75.75-.03c.03-82.73,67.37-150.01,150.1-149.98h0c82.73.03,150.01,67.37,149.98,150.1l-118.01-.05s0,0,0,0l121.14.05c.03-84.45-68.65-153.2-153.11-153.23Z"/>
    <path class="cls-3" d="M319.16,85c51.04.02,92.57,41.45,92.79,92.43.73-.07,1.46-.11,2.2-.11.67,0,1.32.03,1.97.08-.23-53.27-43.64-96.55-96.96-96.57-53.08-.03-96.35,42.81-97.03,95.73.17,0,.35-.01.52-.01,1.24,0,2.46.09,3.65.25.56-50.73,42.01-91.83,92.87-91.81Z"/>
    <path class="cls-4" d="M259.22,83.66c1.05,2.66.65,6.13-4.32,10.14-2.07,1.67-4.47,3.18-7.2,3.36-1.49.1-2.44-.31-2.98-.55-.93-.48-1.57-.76-2.78-2.25l-3.1-3.84,5.34-4.31,2.47,3.05c.78.97,1.6,2.15,3.12,1.91.48-.08,1.13-.3,1.96-.96.95-.77,1.34-1.39,1.47-1.99.33-1.19-.6-2.35-2.04-4.14-.27-.34-1.15-1.59-2.54-1.95-.86-.22-1.76-.06-2.08-.04l-7.59,1.02c-1.66.23-2.57.29-4.19-.19-1.37-.43-2.6-1.1-4.41-3.34-.3-.37-1.85-2.2-2.22-4.18-.93-4.54,4.07-8.59,4.65-9.05.87-.7,5.54-4.48,9.87-2.25.83.44,1.21.56,2.23,1.83l2.11,2.61-5.38,4.35-2.17-2.68c-.63-.78-1.87-1.63-3.93.04-1.24,1-2.07,2.35-.29,4.55.09.11,1.27,1.74,2.63,2.06.35.09.93.05,1.81-.05l7.83-.97c.55-.08,2.34-.23,4.05.11,2.52.49,3.33,1.74,4.83,3.61,1.63,2.01,2.32,2.87,2.84,4.11h.01ZM274.09,81c-3.24,1.72-5.27,1.98-6.72.96-.83-.54-1.34-1.4-1.79-2.25l-7.42-14.01-3.05,1.62-1.77-3.34,3.01-1.59-4.17-7.87,5.55-2.94,4.17,7.87,3.34-1.77,1.77,3.34-3.34,1.77,6.54,12.36c.36.68.45.85.77,1.11.87.84,2.04.44,3.03-.08.33-.17.59-.37.89-.58l1.93,3.64c-.54.45-1.28,1-2.73,1.77h0ZM279.56,78.29l-2.19-5.78,5.82-2.21,2.19,5.78-5.82,2.21ZM302.63,71.54l-2.98-33.67,6.89-.61,2.52,28.57,10.12-.9.45,5.1-17.01,1.51h.01ZM338.12,69.95c-2.67,2.3-6.41,1.77-7.47,1.65-1.27-.15-2.21-.4-2.67-.55-1.04-.31-3.85-1.45-4.58-4.43-.22-.84-.3-1.62-.1-3.34l1.24-10.89c.19-1.67.48-2.31.88-3.03,1.62-2.9,5.26-3.4,8.49-3.03.85.1,6.03.64,7.31,4.45.32.9.45,1.69.26,3.31l-1.34,11.75c-.2,1.71-.6,2.92-2.02,4.11ZM335.29,53.05c.17-1.52.09-2.21-.7-2.78-.39-.33-.92-.39-1.13-.42-.69-.08-1.08.07-1.31.19-1.08.55-1.14,1.56-1.26,2.56l-1.41,12.37c-.05.43-.34,2.52,1.88,2.77,2.38.27,2.47-1.94,2.51-2.32l1.41-12.37h.01ZM354.82,76.8l.65-1.9c-.84.32-3.41,1.41-6.28.43-.5-.17-1.78-.71-2.74-1.85-1.61-2.02-.87-4.04-.2-5.99l5.99-17.48,6.04,2.07-5.71,16.67c-.28.82-.66,1.6-.21,2.41.31.56.8.93,1.41,1.14.2.07.97.28,1.67.06,1.27-.43,1.66-2.22,1.7-2.35l5.61-16.4,6.04,2.07-7.94,23.19-6.04-2.07h0ZM365.52,81.42l11.7-21.54,5.61,3.05-11.7,21.54-5.61-3.05ZM378.9,56.76l2.74-5.05,5.61,3.05-2.74,5.05-5.61-3.05ZM388.18,94.39c-1.71.32-3.79-.12-6.87-2.48-2.41-1.84-4.75-4.3-4.06-7.39.29-1.35,1.19-2.52,1.45-2.87l1.54-2.02,4.65,3.55-1.16,1.52c-.49.65-.63.91-.8,1.31-.26.52-.45,1.64.86,2.64.17.13.72.55,1.35.61.6.09,1.48-.19,2.27-1.22,1.07-1.41,1.06-1.91.44-3.64l-2.16-5.93c-1.04-2.84-.72-4.41,1-6.65,3.01-3.85,6.47-2.95,10.36.02,3.17,2.42,4.15,4.74,3.98,6.36-.07,1.15-.6,2.01-1.21,2.81l-1.66,2.17-4.35-3.33,1.08-1.41c.23-.3,1.71-2.07-.23-3.55-.21-.16-.51-.39-1.07-.52-.9-.14-1.53.34-2,.95-.87,1.14-.7,1.88-.19,3.23l2.41,6.48c.22.59.35,1.47.41,2.18.01,1.03-.36,2.14-1.61,3.77-1.13,1.48-2.3,3.01-4.4,3.39l-.03.02Z"/>
    <path class="cls-3" d="M219.6,122.86l-11.2-7.02,6.52-10.41,11.2,7.02-6.52,10.41ZM408.82,107.99l10.85-7.55,7.02,10.08-10.85,7.55-7.02-10.08Z"/>
    <g>
      <g>
        <path class="cls-2" d="M196.88,261.42h-24.49l.03-64.98h24.49l-.03,64.98Z"/>
        <path class="cls-2" d="M196.88,264.03h-24.49c-1.44-.01-2.61-1.18-2.61-2.62l.03-64.97c0-1.44,1.17-2.61,2.61-2.61h24.49c1.44,0,2.61,1.18,2.61,2.62l-.03,64.97c0,1.44-1.17,2.61-2.61,2.61h0ZM175,258.8h19.27l.02-59.75h-19.27l-.02,59.75Z"/>
      </g>
      <g>
        <path class="cls-2" d="M279.52,250.17c0,3.17-1.47,5.85-4.42,8.04-2.95,2.16-6.37,3.23-10.27,3.23-4.66,0-8.18-1.22-10.55-3.67l-27.63-28.9v32.56h-15.67l.02-53.69c0-3.2,1.47-5.88,4.42-8.04,2.94-2.16,6.35-3.23,10.21-3.23,4.78,0,8.33,1.21,10.67,3.62l27.58,28.95v-32.56h15.67l-.02,53.69h-.01Z"/>
        <path class="cls-2" d="M264.83,264.06c-5.38,0-9.56-1.5-12.42-4.46l-23.15-24.22v26.06c0,1.44-1.18,2.61-2.62,2.61h-15.66c-1.44,0-2.61-1.17-2.61-2.62l.02-53.69c0-4.07,1.85-7.48,5.49-10.14,3.39-2.48,7.34-3.74,11.75-3.74,5.49,0,9.71,1.49,12.54,4.42l23.1,24.25v-26.04c.01-1.44,1.18-2.61,2.62-2.61h15.66c1.44,0,2.61,1.17,2.61,2.62l-.02,53.69c0,4.03-1.84,7.44-5.47,10.14-3.4,2.49-7.38,3.75-11.82,3.75l-.02-.02ZM226.65,226.27c.7,0,1.38.28,1.89.81l27.63,28.9c1.83,1.89,4.76,2.86,8.67,2.86,3.36,0,6.22-.89,8.73-2.73,2.28-1.7,3.35-3.59,3.35-5.94l.02-51.08h-10.44v29.94c-.01,1.07-.66,2.02-1.65,2.42-.99.39-2.12.15-2.86-.62l-27.58-28.95c-1.8-1.86-4.76-2.81-8.78-2.81-3.32,0-6.16.89-8.67,2.73-2.29,1.67-3.35,3.56-3.35,5.94l-.02,51.08h10.44v-29.95c0-1.07.66-2.02,1.65-2.42.31-.13.64-.19.97-.19h0Z"/>
      </g>
      <g>
        <path class="cls-2" d="M367.03,228.98c0,8.95-3.85,16.61-11.54,22.99-7.65,6.34-16.85,9.51-27.59,9.51h-34.3l.03-64.99h34.3c10.74.02,19.94,3.21,27.58,9.59,7.68,6.35,11.52,13.98,11.52,22.9h0ZM339.62,228.97c0-5.81-.47-10.19-1.43-13.14-1.79-5.3-5.22-7.95-10.26-7.95h-6.88l-.02,42.22h6.88c5.05,0,8.47-2.64,10.27-7.94.96-2.95,1.44-7.34,1.44-13.18h0Z"/>
        <path class="cls-2" d="M327.9,264.08h-34.3c-1.44-.01-2.61-1.18-2.61-2.62l.03-64.97c0-1.44,1.17-2.61,2.61-2.61h34.3c11.32.02,21.16,3.44,29.25,10.2,8.27,6.83,12.46,15.21,12.46,24.9s-4.2,18.13-12.48,24.99c-8.09,6.71-17.94,10.11-29.25,10.11h0ZM296.22,258.85h31.69c10.07.02,18.79-2.98,25.92-8.89s10.59-12.77,10.59-20.98-3.46-15.01-10.57-20.89c-7.14-5.96-15.86-8.98-25.92-8.98h-31.69l-.02,59.74ZM327.91,252.71h-6.88c-1.44,0-2.61-1.17-2.61-2.61l.02-42.22c0-1.44,1.17-2.61,2.61-2.61h6.88c4.31,0,10.01,1.69,12.73,9.73,1.06,3.28,1.57,7.84,1.57,13.98s-.51,10.74-1.57,13.99c-2.74,8.07-8.44,9.75-12.75,9.75h0ZM323.64,247.49h4.27c3.89,0,6.37-1.96,7.8-6.17.86-2.64,1.3-6.81,1.3-12.35s-.44-9.66-1.3-12.33c-1.42-4.18-3.89-6.15-7.78-6.15h-4.27l-.02,37Z"/>
      </g>
      <g>
        <path class="cls-2" d="M454.6,229.02c0,8.95-3.85,16.61-11.54,22.99-7.65,6.34-16.87,9.51-27.65,9.51s-19.92-3.18-27.64-9.53c-7.64-6.41-11.46-14.08-11.46-23s3.83-16.55,11.48-22.89c7.69-6.37,16.9-9.56,27.65-9.56s20,3.2,27.64,9.58c7.68,6.35,11.52,13.98,11.52,22.9h0ZM427.18,229.01c0-5.9-.47-10.28-1.43-13.14-1.8-5.3-5.24-7.95-10.32-7.95s-8.47,2.65-10.27,7.95c-.96,2.85-1.44,7.23-1.44,13.14s.47,10.33,1.43,13.18c1.79,5.3,5.22,7.95,10.26,7.95s8.53-2.65,10.33-7.95c.96-2.86,1.44-7.25,1.44-13.18h0Z"/>
        <path class="cls-2" d="M415.41,264.12c-11.28,0-21.13-3.41-29.3-10.12-8.25-6.92-12.42-15.33-12.41-25.01s4.18-18.06,12.42-24.9c8.13-6.74,18-10.16,29.31-10.16s21.22,3.43,29.31,10.18c8.27,6.83,12.46,15.22,12.46,24.9s-4.2,18.13-12.48,24.99c-8.09,6.71-17.96,10.11-29.31,10.11h0ZM415.44,199.15c-10.07,0-18.81,3.01-25.98,8.96-7.09,5.88-10.53,12.71-10.54,20.89,0,8.18,3.44,15.05,10.53,21,7.19,5.91,15.93,8.92,25.97,8.92s18.85-2.99,25.98-8.91c7.13-5.91,10.59-12.77,10.59-20.98s-3.45-15.01-10.57-20.89c-7.14-5.96-15.88-8.98-25.98-8.98h0ZM415.41,252.74c-4.31,0-10.01-1.69-12.73-9.73-1.06-3.16-1.57-7.75-1.57-14.02s.52-10.81,1.57-13.96c2.73-8.04,8.44-9.73,12.74-9.72,6.21,0,10.63,3.37,12.79,9.73,1.06,3.16,1.57,7.73,1.57,13.98s-.52,10.86-1.57,14.01c-2.16,6.37-6.59,9.73-12.8,9.73v-.02ZM415.43,210.52c-3.89,0-6.37,1.96-7.8,6.18-.86,2.56-1.3,6.7-1.3,12.3s.43,9.78,1.29,12.36c1.42,4.21,3.9,6.17,7.79,6.17s6.42-1.96,7.86-6.18c.86-2.57,1.3-6.72,1.3-12.35s-.43-9.73-1.29-12.31c-1.42-4.21-3.92-6.17-7.85-6.17h0Z"/>
      </g>
    </g>
    <g>
      <g>
        <path class="cls-2" d="M138.54,282.55h-19c-2.73,0-4.09.9-4.09,2.73l-.02,57.68h-25.67l.02-57.69c0-1.82-1.36-2.74-4.09-2.74h-19v-12.83l71.83.03v12.82h.02Z"/>
        <path class="cls-2" d="M115.44,345.56h-25.67c-1.44-.01-2.61-1.18-2.61-2.62l.02-57.62c-.2-.07-.64-.18-1.48-.18h-19c-1.44,0-2.61-1.18-2.61-2.62v-12.82c0-1.44,1.17-2.61,2.61-2.61l71.83.03c1.44,0,2.61,1.17,2.61,2.61v12.82c0,1.44-1.17,2.61-2.61,2.61h-19c-.83,0-1.27.1-1.47.17l-.03,57.63c0,1.44-1.17,2.61-2.61,2.61h.02ZM92.38,340.34h20.45l.02-55.06c0-1.25.49-5.34,6.7-5.34h16.39v-7.6l-66.62-.03v7.61h16.38c6.21,0,6.69,4.09,6.69,5.35l-.02,55.07h0Z"/>
      </g>
      <g>
        <path class="cls-2" d="M173.85,342.98h-25.67l.03-73.25h25.67l-.03,73.25Z"/>
        <path class="cls-2" d="M173.85,345.59h-25.67c-1.44-.01-2.61-1.18-2.61-2.62l.03-73.24c0-1.44,1.17-2.61,2.61-2.61h25.67c1.44.01,2.61,1.18,2.61,2.62l-.03,73.24c0,1.44-1.17,2.61-2.61,2.61ZM150.79,340.36h20.45l.03-68.01h-20.45l-.03,68.01Z"/>
      </g>
      <g>
        <path class="cls-2" d="M260.46,330.3c0,3.58-1.55,6.6-4.63,9.07-3.09,2.43-6.67,3.64-10.76,3.64-4.89,0-8.58-1.38-11.06-4.13l-28.96-32.58-.02,36.7h-16.41l.02-60.53c0-3.61,1.54-6.64,4.63-9.07,3.09-2.43,6.65-3.65,10.7-3.64,5.01,0,8.74,1.36,11.18,4.08l28.9,32.63.02-36.7h16.41l-.02,60.53h0Z"/>
        <path class="cls-2" d="M245.07,345.62c-5.64,0-10.01-1.68-13-5l-24.42-27.47v29.84c0,1.44-1.18,2.61-2.62,2.61h-16.41c-1.44,0-2.61-1.18-2.61-2.62l.02-60.52c0-4.44,1.89-8.18,5.63-11.11,3.54-2.79,7.69-4.21,12.32-4.2,5.76,0,10.17,1.67,13.12,4.95l24.36,27.5v-29.83c0-1.44,1.18-2.61,2.62-2.61h16.41c1.44,0,2.61,1.18,2.61,2.62l-.02,60.52c0,4.39-1.89,8.13-5.61,11.1-3.56,2.8-7.72,4.22-12.39,4.21h0ZM205.05,303.69c.73,0,1.44.31,1.95.87l28.96,32.58c1.97,2.19,4.96,3.26,9.11,3.26,3.52,0,6.51-1.01,9.15-3.08,2.44-1.95,3.64-4.25,3.64-7.02l.02-57.91h-11.19v34.09c-.01,1.08-.68,2.05-1.69,2.44-1.01.38-2.16.1-2.88-.71l-28.9-32.63c-1.93-2.15-4.96-3.2-9.23-3.2-3.48,0-6.45,1.01-9.09,3.08-2.45,1.93-3.64,4.22-3.64,7.02l-.02,57.91h11.19v-34.09c0-1.08.68-2.05,1.69-2.44.3-.11.62-.17.93-.17h0Z"/>
      </g>
      <g>
        <path class="cls-2" d="M341.98,282.64h-18.99c-2.73,0-4.09.9-4.09,2.73l-.02,57.68h-25.67l.02-57.69c0-1.82-1.36-2.74-4.09-2.74h-18.99v-12.83l71.83.03v12.82h0Z"/>
        <path class="cls-2" d="M318.87,345.65h-25.67c-1.44-.01-2.61-1.18-2.61-2.62l.02-57.62c-.2-.07-.64-.18-1.48-.18h-18.99c-1.44,0-2.61-1.18-2.61-2.62v-12.82c0-1.44,1.17-2.61,2.61-2.61l71.83.03c1.44,0,2.61,1.17,2.61,2.61v12.82c0,1.44-1.17,2.61-2.61,2.61h-18.99c-.84,0-1.27.1-1.48.17l-.03,57.63c0,1.44-1.17,2.61-2.61,2.61h0ZM295.81,340.42h20.45l.02-55.06c0-1.25.48-5.34,6.7-5.34h16.39v-7.6l-66.62-.03v7.61h16.38c6.21,0,6.69,4.09,6.69,5.35l-.02,55.07h0Z"/>
      </g>
      <g>
        <path class="cls-2" d="M377.29,343.06h-25.67l.03-73.25h25.67l-.03,73.25Z"/>
        <path class="cls-2" d="M377.29,345.67h-25.67c-1.44-.01-2.61-1.18-2.61-2.62l.03-73.24c0-1.44,1.17-2.61,2.61-2.61h25.67c1.44.01,2.61,1.18,2.61,2.62l-.03,73.24c0,1.44-1.17,2.61-2.61,2.61ZM354.23,340.45h20.45l.03-68.01h-20.45l-.03,68.01Z"/>
      </g>
      <g>
        <path class="cls-2" d="M463.9,330.38c0,3.58-1.55,6.6-4.63,9.07-3.09,2.43-6.67,3.64-10.76,3.64-4.89,0-8.58-1.38-11.06-4.13l-28.96-32.58-.02,36.7h-16.41l.02-60.53c0-3.61,1.54-6.64,4.63-9.07s6.65-3.65,10.7-3.64c5.01,0,8.73,1.36,11.18,4.08l28.9,32.63.02-36.7h16.41l-.02,60.53h0Z"/>
        <path class="cls-2" d="M448.51,345.7c-5.64,0-10.01-1.68-13-5l-24.42-27.47v29.84c-.01,1.44-1.18,2.61-2.62,2.61h-16.41c-1.44,0-2.61-1.18-2.61-2.62l.02-60.52c0-4.44,1.89-8.18,5.63-11.11,3.54-2.79,7.69-4.21,12.32-4.2,5.76,0,10.17,1.67,13.12,4.95l24.36,27.5v-29.83c.01-1.44,1.18-2.61,2.62-2.61h16.41c1.44,0,2.61,1.18,2.61,2.62l-.02,60.52c0,4.39-1.89,8.13-5.61,11.1-3.56,2.8-7.72,4.22-12.39,4.21h0ZM408.49,303.77c.73,0,1.44.31,1.95.87l28.96,32.58c1.97,2.19,4.96,3.26,9.11,3.26,3.52,0,6.51-1.01,9.15-3.08,2.44-1.95,3.64-4.25,3.64-7.02l.02-57.91h-11.19v34.09c-.01,1.08-.68,2.05-1.69,2.44-1.01.38-2.16.1-2.88-.71l-28.9-32.63c-1.93-2.15-4.95-3.2-9.23-3.2-3.48,0-6.45,1.01-9.09,3.08-2.45,1.93-3.64,4.22-3.64,7.02l-.02,57.91h11.19v-34.09c.01-1.08.68-2.05,1.69-2.44.3-.11.62-.17.93-.17h0Z"/>
      </g>
      <g>
        <path class="cls-2" d="M558.2,343.14l-41.06-.02c-11.22,0-20.88-3.58-28.97-10.74-8.01-7.23-12.02-15.87-12.01-25.92,0-10.05,4.02-18.65,12.03-25.8,8.06-7.19,17.72-10.78,28.98-10.77h30.78v12.84h-30.78c-5.29-.01-8.88,2.97-10.76,8.94-1,3.33-1.51,8.26-1.51,14.81s.5,11.54,1.5,14.86c1.88,5.97,5.47,8.96,10.76,8.96h15.39v-14.64c0-1.82-1.36-2.74-4.09-2.74h-11.3v-12.83h25.67c3.57.01,6.89.71,9.98,2.11,3.6,1.79,5.41,4.15,5.41,7.09v33.85h-.02Z"/>
        <path class="cls-2" d="M558.2,345.75l-41.06-.02c-11.83,0-22.15-3.84-30.7-11.4-8.57-7.73-12.9-17.1-12.89-27.87,0-10.78,4.35-20.11,12.91-27.75,8.51-7.59,18.85-11.44,30.71-11.44h30.78c1.44.01,2.61,1.18,2.61,2.62v12.82c0,1.44-1.17,2.61-2.61,2.61h-30.78c-2.59-.01-6.26.72-8.28,7.12-.92,3.03-1.39,7.76-1.39,14.02s.46,11.05,1.39,14.11c2,6.36,5.67,7.1,8.26,7.11h12.78v-11.98c-.2-.07-.64-.18-1.48-.18h-11.3c-1.44,0-2.61-1.17-2.61-2.61v-12.82c0-1.44,1.17-2.61,2.61-2.61h25.67c3.92.01,7.64.8,11.05,2.34,5.75,2.86,6.94,6.72,6.94,9.46v33.85c-.01,1.44-1.18,2.61-2.62,2.61h.01ZM517.17,272.49c-10.55,0-19.71,3.4-27.24,10.11-7.51,6.69-11.16,14.5-11.16,23.86s3.64,17.21,11.15,23.98c7.54,6.67,16.71,10.07,27.22,10.07l38.45.02v-31.25c.01-1.19-.4-2.98-3.95-4.75-2.65-1.2-5.64-1.82-8.82-1.82h-23.06v7.6h8.69c6.21,0,6.69,4.1,6.69,5.35v14.65c0,1.44-1.17,2.61-2.61,2.61h-15.39c-4.49,0-10.44-1.88-13.24-10.79-1.09-3.64-1.62-8.75-1.62-15.65s.53-11.96,1.62-15.56c2.82-8.94,8.77-10.81,13.26-10.81h28.17v-7.6h-28.17v-.02Z"/>
      </g>
    </g>
    <g>
      <path class="cls-2" d="M578.62,159.32l-24.97,71.16-24.92-71.18h-34.53l16.61,47.56-8.32,23.59-24.92-71.18h-9.61l-13.39-1.11v-2.17h-13.56v2.17h-1.04v14.34h-5.4v-9.21h-16.69v2.26h-3.04v5.91h-5.39v-4.52h-2.43v-4.61h-3.3v-2.35h-11.04v2.35h-1.48v12.6h-4.09v-5.82h-8.78v-5.3h-5.3v-12.87h-19.24c-6.27-24.22-20.97-41.21-38.11-41.22-18.36,0-33.94,19.5-39.35,46.49h-2.57v-3.39h-1.83v-1.91h-2.43v-2.26h-6.52v2.26h-2.43v1.91h-2.39v3.39h-4.82v7.04h-20.34v2.08h-3.39v7.3h-6.69v-14.35h-4v-2.09h-14.08v2.08h-4.17v7.04h-10.17v3.13h-2.09v4.17h-5.48v-6.26h-2.17v-6.96l-1.54-.02.06-.18h-17.9l-24.97,71.15-24.92-71.18h-34.53l16.61,47.56-8.32,23.59-24.92-71.18H25.95l30.83,88.54c1.4,4,4.04,7.29,7.94,9.89,3.89,2.55,8.06,3.82,12.51,3.83,9.54,0,16.23-4.71,20.08-14.15,1.15-3.34,2.17-6.27,3.08-8.76.9-2.5,1.62-4.57,2.17-6.22,1.15,3.45,2.17,6.46,3.07,9.03s1.65,4.71,2.24,6.41c1.75,4.24,4.44,7.59,8.09,10.04,3.69,2.45,7.81,3.67,12.36,3.67s8.49-1.32,12.29-3.96c3.75-2.65,6.34-6.04,7.79-10.19l19.97-56.94h14.57l98.06.04c2.34-34.65,18.65-76.32,35.06-76.31,16.42,0,31.2,42.38,33.87,77.03l.51-.69h83.49s20.16,0,20.16,0l19.98,57.42c1.4,4,4.04,7.29,7.94,9.89,3.89,2.55,8.06,3.82,12.51,3.83,9.54,0,16.23-4.71,20.08-14.15,1.15-3.34,2.18-6.27,3.08-8.76.9-2.5,1.62-4.57,2.17-6.22,1.15,3.45,2.17,6.46,3.07,9.03s1.65,4.71,2.24,6.41c1.75,4.24,4.44,7.59,8.09,10.04,3.69,2.45,7.81,3.67,12.36,3.67s8.49-1.32,12.29-3.96c3.75-2.65,6.34-6.04,7.8-10.19l30.9-88.08h-17.98Z"/>
      <path class="cls-2" d="M545.54,264.17c-5.05,0-9.69-1.38-13.8-4.11-4.08-2.74-7.12-6.51-9.06-11.22-.02-.04-.03-.08-.05-.13-.6-1.7-1.35-3.84-2.25-6.41-.21-.6-.43-1.23-.65-1.88-.82,2.28-1.73,4.89-2.74,7.82-.01.05-.03.09-.05.14-4.27,10.47-11.84,15.78-22.5,15.77-4.94,0-9.63-1.43-13.94-4.25-4.38-2.92-7.39-6.69-8.97-11.21l-19.38-55.66-100.51-.04c-.66.61-1.6.85-2.49.59-1.05-.3-1.8-1.22-1.88-2.31-2.91-37.66-18.4-74.62-31.27-74.63-13.35,0-30.04,37.97-32.46,73.88-.09,1.37-1.23,2.43-2.6,2.43l-110.77-.05-19.36,55.19c-1.63,4.65-4.57,8.5-8.75,11.45-4.24,2.95-8.87,4.44-13.79,4.44s-9.69-1.38-13.8-4.11c-4.08-2.74-7.12-6.51-9.06-11.22-.02-.04-.03-.08-.05-.13-.6-1.7-1.35-3.84-2.25-6.41-.21-.6-.43-1.23-.65-1.88-.82,2.28-1.73,4.89-2.74,7.82-.02.05-.03.09-.05.14-4.27,10.47-11.84,15.78-22.5,15.77-4.94,0-9.63-1.43-13.94-4.25-4.38-2.92-7.39-6.69-8.97-11.21l-30.83-88.56c-.28-.8-.15-1.68.34-2.37s1.28-1.1,2.13-1.1h34.38c1.11,0,2.09.71,2.46,1.76l22.46,64.17,5.55-15.73-16.31-46.71c-.28-.8-.15-1.68.34-2.37s1.28-1.1,2.13-1.1h34.53c1.11,0,2.09.71,2.46,1.76l22.46,64.15,22.51-64.14c.37-1.05,1.35-1.74,2.46-1.74h17.9c.34,0,.68.08.99.2h.52c1.43.02,2.58,1.19,2.58,2.61v4.38c1.23.21,2.17,1.28,2.17,2.57v3.65h.26v-1.56c0-1.26.9-2.31,2.09-2.56v-.57c0-1.44,1.17-2.61,2.61-2.61h7.56v-4.43c0-1.44,1.17-2.61,2.61-2.61h1.62c.24-1.19,1.3-2.09,2.56-2.08h14.08c1.26,0,2.31.9,2.56,2.09h1.44c1.44,0,2.61,1.17,2.61,2.61v11.74h1.47v-4.69c0-1.44,1.17-2.61,2.61-2.61h.83c.24-1.19,1.3-2.09,2.56-2.08h17.73v-4.43c0-1.44,1.17-2.61,2.61-2.61h2.22v-.78c0-1.4,1.1-2.54,2.48-2.6.29-1.06,1.23-1.85,2.36-1.91.17-1.28,1.26-2.26,2.59-2.26h6.52c1.32,0,2.42.99,2.58,2.27,1.17.07,2.13.9,2.39,2.01.17.05.33.11.48.19,6.71-26.17,22.66-43.4,40.73-43.39,17.45,0,33.04,16.12,40.11,41.22h17.25c1.44,0,2.61,1.18,2.61,2.62v10.26h2.69c1.44,0,2.61,1.17,2.61,2.61v2.7h6.17c.55,0,1.06.17,1.48.46v-4.63c0-1.04.61-1.93,1.48-2.35,0-1.44,1.17-2.6,2.61-2.6h11.04c1.35,0,2.46,1.03,2.59,2.35h.71c1.44,0,2.61,1.17,2.61,2.61v2c1.36.09,2.43,1.22,2.43,2.6v1.91h.17v-3.3c0-1.44,1.17-2.61,2.61-2.61h.46c.17-1.28,1.26-2.26,2.59-2.26h16.69c1.44,0,2.61,1.18,2.61,2.62v6.61h.17v-11.74c0-.85.41-1.61,1.05-2.09v-.09c0-1.44,1.17-2.61,2.61-2.61h13.56c1.36,0,2.48,1.05,2.6,2.39l10.9.9h9.5c1.11,0,2.09.7,2.46,1.75l22.46,64.17,5.55-15.73-16.31-46.71c-.28-.8-.15-1.68.34-2.37s1.28-1.1,2.13-1.1h34.53c1.11,0,2.09.71,2.46,1.76l22.46,64.15,22.51-64.14c.37-1.05,1.35-1.74,2.46-1.74h17.9c.84,0,1.64.42,2.13,1.11s.61,1.57.33,2.37l-30.9,88.08c-1.63,4.65-4.57,8.5-8.75,11.45-4.24,2.95-8.87,4.44-13.79,4.44v.04ZM527.53,246.92c1.56,3.76,3.88,6.65,7.1,8.81,3.27,2.17,6.85,3.23,10.91,3.23s7.42-1.14,10.8-3.5c3.31-2.34,5.54-5.25,6.82-8.91l29.68-84.61h-12.38l-24.36,69.41c-.37,1.05-1.35,1.74-2.46,1.74s-2.09-.7-2.46-1.75l-24.31-69.43h-29.01l15.4,44.09c.19.56.19,1.17,0,1.73l-8.33,23.59c-.37,1.04-1.35,1.74-2.46,1.74h0c-1.11,0-2.09-.7-2.46-1.75l-24.31-69.43h-7.76c-.07,0-.14,0-.21,0l-13.39-1.11c-1.21-.1-2.16-1.01-2.36-2.17h-8.42c-.11.67-.48,1.26-1.01,1.65v12.26c0,1.44-1.17,2.61-2.61,2.61h-5.39c-1.44,0-2.61-1.17-2.61-2.61v-6.61h-11.5c-.17,1.28-1.26,2.26-2.59,2.26h-.43v3.3c0,1.44-1.17,2.61-2.61,2.61h-5.39c-1.44,0-2.61-1.17-2.61-2.61v-1.92c-1.36-.09-2.43-1.22-2.43-2.6v-2h-.69c-1.35,0-2.46-1.03-2.59-2.35h-5.85c-.09.92-.66,1.7-1.46,2.09v10.25c0,1.44-1.17,2.61-2.61,2.61h-4.09c-1.44,0-2.61-1.17-2.61-2.61v-3.22h-6.17c-1.44,0-2.61-1.17-2.61-2.61v-2.7h-2.69c-1.44,0-2.61-1.17-2.61-2.61v-10.26h-16.63c-1.19,0-2.23-.8-2.52-1.95-5.17-19.97-15.81-34.03-28.21-38.07,15.33,9.06,26.42,46.15,29.16,74.28l101.81.04c1.11,0,2.1.7,2.46,1.75l19.98,57.41c1.21,3.48,3.48,6.28,6.92,8.58,3.47,2.27,7.1,3.39,11.06,3.39,8.42,0,14.19-4.07,17.64-12.46,1.14-3.33,2.17-6.24,3.06-8.73.88-2.45,1.61-4.52,2.15-6.16.36-1.06,1.35-1.78,2.48-1.78h0c1.12,0,2.12.72,2.47,1.78,1.14,3.43,2.16,6.43,3.05,8.99.89,2.54,1.63,4.65,2.22,6.33h.03ZM110.27,246.74c1.56,3.76,3.89,6.65,7.1,8.81,3.27,2.17,6.85,3.23,10.91,3.23s7.42-1.14,10.8-3.5c3.31-2.34,5.54-5.25,6.82-8.91l19.97-56.94c.37-1.05,1.35-1.75,2.46-1.74l110.21.05c2.45-28.28,14.82-66.23,30.96-74.62-14.07,3.78-25.97,20.34-30.63,43.58-.25,1.22-1.32,2.1-2.56,2.09h-2.57c-1.44,0-2.61-1.17-2.61-2.61v-.9c-.84-.26-1.5-.94-1.73-1.8-1.29-.04-2.34-1.01-2.5-2.26h-1.35c-.17,1.25-1.22,2.22-2.5,2.26-.29,1.04-1.2,1.81-2.3,1.9v.79c0,1.44-1.17,2.61-2.61,2.61h-2.22v4.43c0,1.44-1.17,2.61-2.61,2.61h-17.79c-.24,1.18-1.3,2.08-2.56,2.08h-.78v4.69c0,1.44-1.17,2.61-2.61,2.61h-6.69c-1.44,0-2.61-1.17-2.61-2.61v-11.74h-1.39c-1.26,0-2.31-.9-2.56-2.09h-8.97c-.24,1.19-1.3,2.08-2.56,2.08h-1.56v4.43c0,1.44-1.17,2.61-2.61,2.61h-7.56v.52c0,1.26-.9,2.31-2.09,2.56v1.62c0,1.44-1.17,2.61-2.61,2.61h-5.48c-1.44,0-2.61-1.17-2.61-2.61v-3.69c-1.23-.21-2.17-1.28-2.17-2.57v-4.55h-14.92l-24.36,69.41c-.37,1.05-1.35,1.74-2.46,1.74s-2.09-.7-2.46-1.75l-24.31-69.43h-29.01l15.4,44.09c.19.56.19,1.17,0,1.73l-8.33,23.59c-.37,1.04-1.35,1.74-2.46,1.74h0c-1.11,0-2.09-.7-2.46-1.75l-24.31-69.43h-28.86l29.62,85.08c1.21,3.48,3.48,6.28,6.92,8.58,3.47,2.27,7.1,3.39,11.06,3.39,8.42,0,14.19-4.07,17.64-12.46,1.14-3.33,2.17-6.24,3.06-8.73.88-2.45,1.61-4.52,2.15-6.16.36-1.06,1.35-1.78,2.47-1.78h0c1.12,0,2.12.72,2.47,1.78,1.15,3.46,2.18,6.49,3.05,8.99.89,2.54,1.63,4.65,2.22,6.33h.05Z"/>
    </g>
    <g>
      <g>
        <path d="M196.88,261.42h-24.49l.03-64.98h24.49l-.03,64.98Z"/>
        <path d="M279.52,250.17c0,3.17-1.47,5.85-4.42,8.04-2.95,2.16-6.37,3.23-10.27,3.23-4.66,0-8.18-1.22-10.55-3.67l-27.63-28.9v32.56h-15.67l.02-53.69c0-3.2,1.47-5.88,4.42-8.04,2.94-2.16,6.35-3.23,10.21-3.23,4.78,0,8.33,1.21,10.67,3.62l27.58,28.95v-32.56h15.67l-.02,53.69h-.01Z"/>
        <path d="M367.03,228.98c0,8.95-3.85,16.61-11.54,22.99-7.65,6.34-16.85,9.51-27.59,9.51h-34.3l.03-64.99h34.3c10.74.02,19.94,3.21,27.58,9.59,7.68,6.35,11.52,13.98,11.52,22.9h0ZM339.62,228.97c0-5.81-.47-10.19-1.43-13.14-1.79-5.3-5.22-7.95-10.26-7.95h-6.88l-.02,42.22h6.88c5.05,0,8.47-2.64,10.27-7.94.96-2.95,1.44-7.34,1.44-13.18h0Z"/>
        <path d="M454.6,229.02c0,8.95-3.85,16.61-11.54,22.99-7.65,6.34-16.87,9.51-27.65,9.51s-19.92-3.18-27.64-9.53c-7.64-6.41-11.46-14.08-11.46-23s3.83-16.55,11.48-22.89c7.69-6.37,16.9-9.56,27.65-9.56s20,3.2,27.64,9.58c7.68,6.35,11.52,13.98,11.52,22.9h0ZM427.18,229.01c0-5.9-.47-10.28-1.43-13.14-1.8-5.3-5.24-7.95-10.32-7.95s-8.47,2.65-10.27,7.95c-.96,2.85-1.44,7.23-1.44,13.14s.47,10.33,1.43,13.18c1.79,5.3,5.22,7.95,10.26,7.95s8.53-2.65,10.33-7.95c.96-2.86,1.44-7.25,1.44-13.18h0Z"/>
      </g>
      <g>
        <path d="M138.54,282.55h-19c-2.73,0-4.09.9-4.09,2.73l-.02,57.68h-25.67l.02-57.69c0-1.82-1.36-2.74-4.09-2.74h-19v-12.83l71.83.03v12.82h.02Z"/>
        <path d="M173.85,342.98h-25.67l.03-73.25h25.67l-.03,73.25Z"/>
        <path d="M260.46,330.3c0,3.58-1.55,6.6-4.63,9.07-3.09,2.43-6.67,3.64-10.76,3.64-4.89,0-8.58-1.38-11.06-4.13l-28.96-32.58-.02,36.7h-16.41l.02-60.53c0-3.61,1.54-6.64,4.63-9.07,3.09-2.43,6.65-3.65,10.7-3.64,5.01,0,8.74,1.36,11.18,4.08l28.9,32.63.02-36.7h16.41l-.02,60.53h0Z"/>
        <path d="M341.98,282.64h-18.99c-2.73,0-4.09.9-4.09,2.73l-.02,57.68h-25.67l.02-57.69c0-1.82-1.36-2.74-4.09-2.74h-18.99v-12.83l71.83.03v12.82h0Z"/>
        <path d="M377.29,343.06h-25.67l.03-73.25h25.67l-.03,73.25Z"/>
        <path d="M463.9,330.38c0,3.58-1.55,6.6-4.63,9.07-3.09,2.43-6.67,3.64-10.76,3.64-4.89,0-8.58-1.38-11.06-4.13l-28.96-32.58-.02,36.7h-16.41l.02-60.53c0-3.61,1.54-6.64,4.63-9.07s6.65-3.65,10.7-3.64c5.01,0,8.73,1.36,11.18,4.08l28.9,32.63.02-36.7h16.41l-.02,60.53h0Z"/>
        <path d="M558.2,343.14l-41.06-.02c-11.22,0-20.88-3.58-28.97-10.74-8.01-7.23-12.02-15.87-12.01-25.92,0-10.05,4.02-18.65,12.03-25.8,8.06-7.19,17.72-10.78,28.98-10.77h30.78v12.84h-30.78c-5.29-.01-8.88,2.97-10.76,8.94-1,3.33-1.51,8.26-1.51,14.81s.5,11.54,1.5,14.86c1.88,5.97,5.47,8.96,10.76,8.96h15.39v-14.64c0-1.82-1.36-2.74-4.09-2.74h-11.3v-12.83h25.67c3.57.01,6.89.71,9.98,2.11,3.6,1.79,5.41,4.15,5.41,7.09v33.85h-.02Z"/>
      </g>
      <path d="M578.62,159.32l-24.97,71.16-24.92-71.18h-34.53l16.61,47.56-8.32,23.59-24.92-71.18h-9.61l-13.39-1.11v-2.17h-13.56v2.17h-1.04v14.34h-5.4v-9.21h-16.69v2.26h-3.04v5.91h-5.39v-4.52h-2.43v-4.61h-3.3v-2.35h-11.04v2.35h-1.48v12.6h-4.09v-5.82h-8.78v-5.3h-5.3v-12.87h-19.24c-6.27-24.22-20.97-41.21-38.11-41.22-18.36,0-33.94,19.5-39.35,46.49h-2.57v-3.39h-1.83v-1.91h-2.43v-2.26h-6.52v2.26h-2.43v1.91h-2.39v3.39h-4.82v7.04h-20.34v2.08h-3.39v7.3h-6.69v-14.35h-4v-2.09h-14.08v2.08h-4.17v7.04h-10.17v3.13h-2.09v4.17h-5.48v-6.26h-2.17v-6.96l-1.54-.02.06-.18h-17.9l-24.97,71.15-24.92-71.18h-34.53l16.61,47.56-8.32,23.59-24.92-71.18H25.95l30.83,88.54c1.4,4,4.04,7.29,7.94,9.89,3.89,2.55,8.06,3.82,12.51,3.83,9.54,0,16.23-4.71,20.08-14.15,1.15-3.34,2.17-6.27,3.08-8.76.9-2.5,1.62-4.57,2.17-6.22,1.15,3.45,2.17,6.46,3.07,9.03s1.65,4.71,2.24,6.41c1.75,4.24,4.44,7.59,8.09,10.04,3.69,2.45,7.81,3.67,12.36,3.67s8.49-1.32,12.29-3.96c3.75-2.65,6.34-6.04,7.79-10.19l19.97-56.94h14.57l98.06.04c2.34-34.65,18.65-76.32,35.06-76.31,16.42,0,31.2,42.38,33.87,77.03l.51-.69h83.49s20.16,0,20.16,0l19.98,57.42c1.4,4,4.04,7.29,7.94,9.89,3.89,2.55,8.06,3.82,12.51,3.83,9.54,0,16.23-4.71,20.08-14.15,1.15-3.34,2.18-6.27,3.08-8.76.9-2.5,1.62-4.57,2.17-6.22,1.15,3.45,2.17,6.46,3.07,9.03s1.65,4.71,2.24,6.41c1.75,4.24,4.44,7.59,8.09,10.04,3.69,2.45,7.81,3.67,12.36,3.67s8.49-1.32,12.29-3.96c3.75-2.65,6.34-6.04,7.8-10.19l30.9-88.08h-17.98Z"/>
    </g>
  </g>
</svg>